HIERARCHY
ROOT mixamorig:Hips
{
  OFFSET 0.000000 0.000000 0.000000
  CHANNELS 6 Xposition Yposition Zposition Xrotation Yrotation Zrotation
  JOINT mixamorig:Spine
  {
    OFFSET 0.785918 22.667751 -11.192521
    CHANNELS 3 Xrotation Yrotation Zrotation
    JOINT mixamorig:Spine2
    {
      OFFSET 0.785918 22.667751 -11.192521
      CHANNELS 3 Xrotation Yrotation Zrotation
      JOINT mixamorig:Neck
      {
        OFFSET 0.000000 4.280912 0.000000
        CHANNELS 3 Xrotation Yrotation Zrotation
        JOINT mixamorig:Head
        {
          OFFSET 0.000000 4.254871 0.000000
          CHANNELS 3 Xrotation Yrotation Zrotation
          End Site
          {
            OFFSET 0.000000 1.276461 0.000000
          }
        }
      }
      JOINT mixamorig:LeftShoulder
      {
        OFFSET 16.621605 2.780659 -2.297863
        CHANNELS 3 Xrotation Yrotation Zrotation
        JOINT mixamorig:LeftArm
        {
          OFFSET 7.570161 -18.010043 0.790673
          CHANNELS 3 Xrotation Yrotation Zrotation
          JOINT mixamorig:LeftForeArm
          {
            OFFSET 4.258502 -21.330331 -3.694189
            CHANNELS 3 Xrotation Yrotation Zrotation
            JOINT mixamorig:LeftHand
            {
              OFFSET -1.020528 -3.245478 -1.657259
              CHANNELS 3 Xrotation Yrotation Zrotation
              End Site
              {
                OFFSET -0.306158 -0.973643 -0.497178
              }
            }
          }
        }
      }
      JOINT mixamorig:RightShoulder
      {
        OFFSET -16.621605 2.780659 2.297863
        CHANNELS 3 Xrotation Yrotation Zrotation
        JOINT mixamorig:RightArm
        {
          OFFSET -7.047239 -26.880381 -0.525442
          CHANNELS 3 Xrotation Yrotation Zrotation
          JOINT mixamorig:RightForeArm
          {
            OFFSET -7.219958 -17.761464 -6.028907
            CHANNELS 3 Xrotation Yrotation Zrotation
            JOINT mixamorig:RightHand
            {
              OFFSET 1.362391 -2.129385 -3.788414
              CHANNELS 3 Xrotation Yrotation Zrotation
              End Site
              {
                OFFSET 0.408717 -0.638815 -1.136524
              }
            }
          }
        }
      }
    }
  }
  JOINT mixamorig:LeftUpLeg
  {
    OFFSET 10.014631 -0.404759 2.482655
    CHANNELS 3 Xrotation Yrotation Zrotation
    JOINT mixamorig:LeftLeg
    {
      OFFSET 2.113296 -38.097659 -0.269871
      CHANNELS 3 Xrotation Yrotation Zrotation
      JOINT mixamorig:LeftFoot
      {
        OFFSET -0.573928 -31.710121 21.169490
        CHANNELS 3 Xrotation Yrotation Zrotation
        JOINT mixamorig:LeftToeBase
        {
          OFFSET -0.179441 -4.917473 -4.664447
          CHANNELS 3 Xrotation Yrotation Zrotation
          End Site
          {
            OFFSET -0.053832 -1.475242 -1.399334
          }
        }
      }
    }
  }
  JOINT mixamorig:RightUpLeg
  {
    OFFSET -10.014631 0.404759 -2.482655
    CHANNELS 3 Xrotation Yrotation Zrotation
    JOINT mixamorig:RightLeg
    {
      OFFSET 1.865041 -30.879068 8.259322
      CHANNELS 3 Xrotation Yrotation Zrotation
      JOINT mixamorig:RightFoot
      {
        OFFSET -5.726950 -38.744381 19.123190
        CHANNELS 3 Xrotation Yrotation Zrotation
        JOINT mixamorig:RightToeBase
        {
          OFFSET -3.558205 -3.026307 -8.262988
          CHANNELS 3 Xrotation Yrotation Zrotation
          End Site
          {
            OFFSET -1.067462 -0.907892 -2.478896
          }
        }
      }
    }
  }
}
MOTION
Frames: 12
Frame Time: 0.083333
0.111091 0.141283 0.093864 0.644052 -0.052304 -0.062722 0.000000 0.000000 0.000000 -26.056476 7.108867 3.434578 12.664357 -5.751553 8.963538 11.421202 -7.748298 7.828499 22.890975 -8.986066 -3.252964 -2.107035 0.154997 3.320531 0.493764 1.844877 0.210560 0.000000 0.000000 0.000000 23.842685 -7.473541 -1.991513 0.805103 -0.038814 1.586306 0.396202 -0.112712 0.083970 0.000000 0.000000 0.000000 -0.769121 0.043469 0.104942 0.332915 -0.059340 -0.134890 -0.584477 1.284999 -1.195260 0.000000 0.000000 0.000000 -0.213140 -0.085423 -0.565661 0.212731 -0.005260 0.517962 -0.280496 -0.369281 0.140942 0.000000 0.000000 0.000000
0.110835 0.141251 0.094176 0.581260 -0.048226 -0.058896 0.000000 0.000000 0.000000 -26.056390 7.111678 3.441030 12.683912 -5.805459 8.951646 11.429675 -7.803247 7.801918 23.256234 -8.860262 -3.191795 -1.836857 0.148666 3.270101 0.492714 1.587110 0.157563 0.000000 0.000000 0.000000 24.068536 -7.523619 -1.967299 0.679143 -0.021847 1.597199 0.358542 -0.161418 0.108065 0.000000 0.000000 0.000000 -0.498846 0.049103 0.183875 0.044179 -0.065890 -0.222653 -0.687122 0.839279 -0.701620 0.000000 0.000000 0.000000 -0.119543 -0.072033 -0.516352 0.117632 -0.009199 0.477761 -0.240457 -0.268202 0.096537 0.000000 0.000000 0.000000
0.110294 0.141555 0.094758 1.456024 -0.127678 -0.162325 0.000000 0.000000 0.000000 -26.054257 7.186893 3.457776 12.589893 -5.017077 9.125270 11.490937 -7.032285 8.176667 19.066145 -10.322458 -3.845336 -3.727437 0.476188 4.010091 1.353546 3.661302 0.317325 0.000000 0.000000 0.000000 21.288521 -7.053772 -2.644633 1.752078 0.012851 1.636799 0.894651 -0.652831 0.435299 0.000000 0.000000 0.000000 -0.679979 0.155109 0.758500 -0.631619 -0.172011 -0.840575 -2.220261 0.988083 -0.524262 0.000000 0.000000 0.000000 0.021504 -0.158980 -1.326752 0.058764 -0.058300 1.236649 -0.565394 -0.509224 0.144799 0.000000 0.000000 0.000000
0.109919 0.141923 0.095590 1.667501 -0.171557 -0.239921 -0.000000 0.000000 0.000000 -26.051445 7.285184 3.555439 12.593840 -4.605085 9.096513 11.586073 -6.614332 8.246046 18.423968 -10.599228 -4.020047 -2.920371 0.777857 4.253998 1.761175 3.293820 0.235445 0.000000 0.000000 0.000000 20.784030 -7.078137 -3.202067 1.682184 0.196640 1.837537 0.996451 -1.508712 1.023176 0.000000 0.000000 0.000000 0.767813 0.268189 1.654517 -2.665854 -0.131796 -1.589550 -3.478479 -1.442330 2.063421 0.000000 0.000000 0.000000 1.003944 -0.108606 -1.599224 -0.569375 -0.216854 1.461788 -0.496678 -0.364850 -0.007246 0.000000 0.000000 0.000000
0.109514 0.142221 0.096732 1.660757 -0.215217 -0.332258 -0.000000 0.000000 0.000000 -26.049310 7.366556 3.693935 12.493373 -4.261681 8.911803 11.581063 -6.216026 8.145563 18.712140 -10.582823 -4.240438 -1.711012 1.016444 4.432219 1.546483 2.533476 0.415337 0.000000 0.000000 0.000000 20.782387 -7.178567 -3.792013 1.634660 0.332840 2.118595 0.847989 -2.235037 1.612971 0.000000 0.000000 0.000000 2.171867 0.356593 2.231041 -4.077824 0.194318 -1.667879 -2.778111 -1.531902 1.431783 0.000000 0.000000 0.000000 2.054341 0.002858 -1.593443 -1.102180 -0.509378 1.239073 -0.192945 -0.937634 0.223522 0.000000 0.000000 0.000000
0.108828 0.142347 0.098119 1.703646 -0.270305 -0.444961 0.000000 0.000000 0.000000 -26.049248 7.392101 3.822825 12.441355 -4.255341 8.785694 11.544567 -6.175279 8.021531 18.925337 -10.517632 -4.545275 -1.965260 0.901355 4.792115 1.525929 2.461089 0.564286 0.000000 0.000000 0.000000 20.555769 -7.162537 -4.085296 2.472386 0.140890 2.274977 0.354127 -2.131566 1.854851 0.000000 0.000000 0.000000 4.763880 0.498407 3.030642 -6.582832 0.428521 -2.141997 -1.701193 0.593766 -1.388130 0.000000 0.000000 0.000000 2.694210 0.119921 -1.486255 -1.877182 -0.797225 0.761378 0.328810 -1.558222 0.804206 0.000000 0.000000 0.000000
0.107715 0.143260 0.099338 1.416204 -0.325476 -0.578068 0.000000 0.000000 0.000000 -26.048733 7.440537 4.035148 12.773427 -4.011064 8.670945 11.931219 -5.960524 7.949926 20.590486 -10.003331 -4.708706 -1.889918 0.585047 4.895755 1.544024 1.794147 0.603022 0.000000 0.000000 0.000000 22.461851 -7.619035 -4.240309 3.726103 -0.429596 2.436729 -1.033834 -0.393405 2.190873 0.000000 0.000000 0.000000 5.304651 0.551091 3.541932 -6.097815 0.574287 -2.341092 -2.174996 0.785509 -1.889412 0.000000 0.000000 0.000000 3.273916 0.192248 -1.431646 -2.069148 -1.037494 0.373067 0.643809 -1.402500 1.107810 0.000000 0.000000 0.000000
0.106748 0.144427 0.100236 1.114761 -0.357582 -0.662601 0.000000 0.000000 0.000000 -26.045331 7.575284 4.235031 13.052461 -3.646616 8.590624 12.285170 -5.621510 7.946340 22.722871 -9.354241 -4.601835 -2.436287 -0.011384 4.618425 1.835679 1.332695 0.352863 0.000000 0.000000 0.000000 25.529077 -8.424966 -4.076756 4.161743 -0.878715 2.259133 -2.234631 1.727149 2.723441 0.000000 0.000000 0.000000 4.435599 0.566129 3.243255 -4.293576 0.393173 -2.052855 -1.470701 1.104628 -2.063540 0.000000 0.000000 0.000000 3.265726 0.176983 -1.470272 -1.576794 -1.238417 -0.035512 1.184273 -0.984090 1.264624 0.000000 0.000000 0.000000
0.106088 0.144870 0.101196 1.145498 -0.411208 -0.772396 0.000000 0.000000 0.000000 -26.044269 7.651764 4.385286 13.256500 -3.409268 8.506327 12.539739 -5.396580 7.912316 22.823656 -9.358905 -4.499446 -2.589874 -0.016357 3.942852 1.674415 1.556981 0.454623 0.000000 0.000000 0.000000 25.642672 -8.538067 -4.184568 4.460436 -0.846221 2.004709 -1.754631 1.942672 3.342516 0.000000 0.000000 0.000000 3.972337 0.645343 2.796883 -3.567231 0.146973 -1.713544 -0.907275 2.454525 -3.147264 0.000000 0.000000 0.000000 2.998805 0.142497 -1.679678 -1.167623 -1.256427 0.073516 1.167076 -0.593413 1.313293 0.000000 0.000000 0.000000
0.105789 0.144652 0.102300 1.251484 -0.497388 -0.946444 0.000000 0.000000 0.000000 -26.045990 7.672559 4.569035 13.298135 -3.247029 8.507323 12.611287 -5.239527 7.952054 22.777547 -9.313638 -4.189982 -2.614416 0.058829 2.829028 1.532735 1.560656 1.093685 0.000000 0.000000 0.000000 25.529226 -8.552946 -4.239501 4.883470 -0.855114 1.743538 -1.764886 1.775514 3.918456 0.000000 0.000000 0.000000 6.544755 0.893942 2.830902 -6.875242 -0.085283 -1.987581 -0.992335 3.908423 -4.089203 0.000000 0.000000 0.000000 3.224157 0.204142 -1.798916 -1.280039 -1.321997 0.214886 1.468724 -0.866659 1.352698 0.000000 0.000000 0.000000
0.105860 0.144344 0.103697 1.523746 -0.575832 -1.097279 0.000000 0.000000 0.000000 -26.050014 7.622980 4.669855 13.271147 -3.035110 8.495681 12.625099 -5.018696 7.992643 22.164427 -9.368008 -3.994286 -2.587296 0.238558 1.896124 1.511836 1.791309 1.455234 0.000000 0.000000 0.000000 24.905319 -8.401726 -4.266255 5.127648 -0.875586 1.723200 -2.265742 1.373213 3.894936 0.000000 0.000000 0.000000 9.181609 1.166620 2.716841 -9.659873 -0.375162 -2.123618 -1.066336 6.108417 -5.837224 0.000000 0.000000 0.000000 4.058672 0.385034 -1.737642 -2.147605 -1.606892 -0.014593 1.791905 -1.443226 1.656686 0.000000 0.000000 0.000000
0.106694 0.143645 0.105098 1.849852 -0.663191 -1.266315 0.000000 0.000000 0.000000 -26.057471 7.483381 4.743887 13.237225 -2.762714 8.474252 12.643382 -4.733533 8.037655 20.871310 -9.625685 -4.196526 -2.730553 0.476104 1.699024 1.510398 2.446720 1.444849 0.000000 0.000000 0.000000 23.991374 -8.097007 -4.252970 4.973407 -0.763850 1.700750 -2.326181 0.642797 3.798790 0.000000 0.000000 0.000000 10.300868 1.383026 2.681884 -10.295097 -0.416264 -1.886629 -0.856442 5.837827 -5.624682 0.000000 0.000000 0.000000 6.003391 0.714179 -1.609848 -4.126998 -2.140924 -0.492760 2.081694 -1.936581 2.128064 0.000000 0.000000 0.000000
